
<svg width="40" height="40" viewBox="0 0 40 40" fill="none"
  xmlns="http://www.w3.org/2000/svg">
  <path fill-rule="evenodd" clip-rule="evenodd" d="M19.9742 17.6033L6.62458 25.3586V7.39386L11.2848 4.68696V18.6977L19.9742 13.6498V17.6033ZM0.981994 4.68696L5.64224 7.39386V25.3586L0.981994 22.6517V4.68696ZM10.8088 3.83962L6.13341 6.55628L1.45799 3.83962L6.13341 1.12354L10.8088 3.83962ZM12.2672 13.0799L16.1218 10.8407L19.4987 12.803L12.2672 17.0041V13.0799ZM20.7237 12.3912C20.7179 12.3877 20.7132 12.3843 20.7074 12.3814L16.1218 9.71701L12.2672 11.9563V3.5633L6.13341 -0.00012207L0.000244141 3.5633V23.2044L6.13341 26.7672L20.9571 18.1559V12.8105V12.7939V12.5262L20.7237 12.3912Z" fill="white"/>
</svg>